<mxfile host="app.diagrams.net" modified="2024-05-23T08:55:41.801Z" agent="Mozilla/5.0 (Windows NT 10.0; Win64; x64) AppleWebKit/537.36 (KHTML, like Gecko) Chrome/124.0.0.0 Safari/537.36" etag="hG-r9l5S570pH4-smS7n" version="24.4.6" type="device">
  <diagram name="Sida-1" id="PMAp4x00mKTCaSMPzt4k">
    <mxGraphModel dx="1648" dy="866" grid="1" gridSize="10" guides="1" tooltips="1" connect="1" arrows="1" fold="1" page="1" pageScale="1" pageWidth="827" pageHeight="1169" background="#FFFFFF" math="0" shadow="0">
      <root>
        <mxCell id="0" />
        <mxCell id="1" parent="0" />
        <mxCell id="Nx-WTrkzFlIJL_QPD2IQ-19" style="edgeStyle=orthogonalEdgeStyle;rounded=0;orthogonalLoop=1;jettySize=auto;html=1;entryX=0;entryY=0.25;entryDx=0;entryDy=0;" edge="1" parent="1" source="Nx-WTrkzFlIJL_QPD2IQ-1" target="Nx-WTrkzFlIJL_QPD2IQ-13">
          <mxGeometry relative="1" as="geometry" />
        </mxCell>
        <mxCell id="Nx-WTrkzFlIJL_QPD2IQ-22" value="&lt;b&gt;N&lt;/b&gt;" style="edgeLabel;html=1;align=center;verticalAlign=middle;resizable=0;points=[];" vertex="1" connectable="0" parent="Nx-WTrkzFlIJL_QPD2IQ-19">
          <mxGeometry x="-0.6307" y="3" relative="1" as="geometry">
            <mxPoint x="7" y="-22" as="offset" />
          </mxGeometry>
        </mxCell>
        <mxCell id="Nx-WTrkzFlIJL_QPD2IQ-1" value="Condemned" style="swimlane;whiteSpace=wrap;html=1;" vertex="1" parent="1">
          <mxGeometry x="208" y="110" width="110" height="120" as="geometry" />
        </mxCell>
        <mxCell id="Nx-WTrkzFlIJL_QPD2IQ-2" value="&lt;u&gt;◆ id&amp;nbsp; &amp;nbsp; &amp;nbsp; &amp;nbsp; &amp;nbsp; &amp;nbsp; &amp;nbsp; &amp;nbsp; &amp;nbsp; &amp;nbsp; &amp;nbsp; &amp;nbsp; &amp;nbsp;&amp;nbsp;&lt;span style=&quot;white-space: pre;&quot;&gt;&#x9;&lt;/span&gt;&lt;span style=&quot;white-space: pre;&quot;&gt;&#x9;&lt;/span&gt;&lt;span style=&quot;white-space: pre;&quot;&gt;&#x9;&lt;/span&gt;&lt;/u&gt;" style="text;html=1;align=left;verticalAlign=middle;whiteSpace=wrap;rounded=0;" vertex="1" parent="Nx-WTrkzFlIJL_QPD2IQ-1">
          <mxGeometry y="30" width="200" height="30" as="geometry" />
        </mxCell>
        <mxCell id="Nx-WTrkzFlIJL_QPD2IQ-3" value="◆ Name" style="text;html=1;align=left;verticalAlign=middle;whiteSpace=wrap;rounded=0;" vertex="1" parent="Nx-WTrkzFlIJL_QPD2IQ-1">
          <mxGeometry y="50" width="110" height="30" as="geometry" />
        </mxCell>
        <mxCell id="Nx-WTrkzFlIJL_QPD2IQ-5" value="◆ Time" style="text;html=1;align=left;verticalAlign=middle;whiteSpace=wrap;rounded=0;" vertex="1" parent="Nx-WTrkzFlIJL_QPD2IQ-1">
          <mxGeometry y="80" width="110" height="30" as="geometry" />
        </mxCell>
        <mxCell id="Nx-WTrkzFlIJL_QPD2IQ-6" value="Saved" style="swimlane;whiteSpace=wrap;html=1;" vertex="1" parent="1">
          <mxGeometry x="508" y="110" width="111" height="120" as="geometry" />
        </mxCell>
        <mxCell id="Nx-WTrkzFlIJL_QPD2IQ-7" value="&lt;u&gt;◆ id&amp;nbsp; &amp;nbsp; &amp;nbsp; &amp;nbsp; &amp;nbsp; &amp;nbsp; &amp;nbsp; &amp;nbsp; &amp;nbsp; &amp;nbsp; &amp;nbsp; &amp;nbsp; &amp;nbsp;&amp;nbsp;&lt;span style=&quot;white-space: pre;&quot;&gt;&#x9;&lt;/span&gt;&lt;span style=&quot;white-space: pre;&quot;&gt;&#x9;&lt;/span&gt;&lt;span style=&quot;white-space: pre;&quot;&gt;&#x9;&lt;/span&gt;&lt;/u&gt;" style="text;html=1;align=left;verticalAlign=middle;whiteSpace=wrap;rounded=0;" vertex="1" parent="Nx-WTrkzFlIJL_QPD2IQ-6">
          <mxGeometry y="30" width="200" height="30" as="geometry" />
        </mxCell>
        <mxCell id="Nx-WTrkzFlIJL_QPD2IQ-8" value="◆ Name" style="text;html=1;align=left;verticalAlign=middle;whiteSpace=wrap;rounded=0;" vertex="1" parent="Nx-WTrkzFlIJL_QPD2IQ-6">
          <mxGeometry y="50" width="110" height="30" as="geometry" />
        </mxCell>
        <mxCell id="Nx-WTrkzFlIJL_QPD2IQ-9" value="◆ Time" style="text;html=1;align=left;verticalAlign=middle;whiteSpace=wrap;rounded=0;" vertex="1" parent="Nx-WTrkzFlIJL_QPD2IQ-6">
          <mxGeometry y="80" width="110" height="30" as="geometry" />
        </mxCell>
        <mxCell id="Nx-WTrkzFlIJL_QPD2IQ-10" value="IPLogger" style="swimlane;whiteSpace=wrap;html=1;" vertex="1" parent="1">
          <mxGeometry x="358" y="270" width="110" height="140" as="geometry" />
        </mxCell>
        <mxCell id="Nx-WTrkzFlIJL_QPD2IQ-11" value="&lt;u&gt;◆ id&amp;nbsp; &amp;nbsp; &amp;nbsp; &amp;nbsp; &amp;nbsp; &amp;nbsp; &amp;nbsp; &amp;nbsp; &amp;nbsp; &amp;nbsp; &amp;nbsp; &amp;nbsp; &amp;nbsp;&amp;nbsp;&lt;span style=&quot;white-space: pre;&quot;&gt;&#x9;&lt;/span&gt;&lt;span style=&quot;white-space: pre;&quot;&gt;&#x9;&lt;/span&gt;&lt;span style=&quot;white-space: pre;&quot;&gt;&#x9;&lt;/span&gt;&lt;/u&gt;" style="text;html=1;align=left;verticalAlign=middle;whiteSpace=wrap;rounded=0;" vertex="1" parent="Nx-WTrkzFlIJL_QPD2IQ-10">
          <mxGeometry y="30" width="200" height="30" as="geometry" />
        </mxCell>
        <mxCell id="Nx-WTrkzFlIJL_QPD2IQ-12" value="◆ Name" style="text;html=1;align=left;verticalAlign=middle;whiteSpace=wrap;rounded=0;" vertex="1" parent="Nx-WTrkzFlIJL_QPD2IQ-10">
          <mxGeometry y="50" width="110" height="30" as="geometry" />
        </mxCell>
        <mxCell id="Nx-WTrkzFlIJL_QPD2IQ-13" value="◆ Destination" style="text;html=1;align=left;verticalAlign=middle;whiteSpace=wrap;rounded=0;" vertex="1" parent="Nx-WTrkzFlIJL_QPD2IQ-10">
          <mxGeometry y="80" width="110" height="30" as="geometry" />
        </mxCell>
        <mxCell id="Nx-WTrkzFlIJL_QPD2IQ-14" value="◆ IP" style="text;html=1;align=left;verticalAlign=middle;whiteSpace=wrap;rounded=0;" vertex="1" parent="Nx-WTrkzFlIJL_QPD2IQ-10">
          <mxGeometry y="110" width="110" height="30" as="geometry" />
        </mxCell>
        <mxCell id="Nx-WTrkzFlIJL_QPD2IQ-21" style="edgeStyle=orthogonalEdgeStyle;rounded=0;orthogonalLoop=1;jettySize=auto;html=1;exitX=0;exitY=0.5;exitDx=0;exitDy=0;entryX=1;entryY=0.25;entryDx=0;entryDy=0;" edge="1" parent="1" source="Nx-WTrkzFlIJL_QPD2IQ-8" target="Nx-WTrkzFlIJL_QPD2IQ-13">
          <mxGeometry relative="1" as="geometry" />
        </mxCell>
        <mxCell id="Nx-WTrkzFlIJL_QPD2IQ-23" value="&lt;b&gt;N&lt;/b&gt;" style="edgeLabel;html=1;align=center;verticalAlign=middle;resizable=0;points=[];" vertex="1" connectable="0" parent="1">
          <mxGeometry x="402" y="185" as="geometry">
            <mxPoint x="77" y="-13" as="offset" />
          </mxGeometry>
        </mxCell>
        <mxCell id="Nx-WTrkzFlIJL_QPD2IQ-25" value="&lt;b&gt;1&lt;/b&gt;" style="edgeLabel;html=1;align=center;verticalAlign=middle;resizable=0;points=[];" vertex="1" connectable="0" parent="1">
          <mxGeometry x="402" y="360" as="geometry">
            <mxPoint x="77" y="-13" as="offset" />
          </mxGeometry>
        </mxCell>
        <mxCell id="Nx-WTrkzFlIJL_QPD2IQ-26" value="&lt;b&gt;1&lt;/b&gt;" style="edgeLabel;html=1;align=center;verticalAlign=middle;resizable=0;points=[];" vertex="1" connectable="0" parent="1">
          <mxGeometry x="268" y="360" as="geometry">
            <mxPoint x="77" y="-13" as="offset" />
          </mxGeometry>
        </mxCell>
        <mxCell id="Nx-WTrkzFlIJL_QPD2IQ-27" value="&lt;h1&gt;&lt;b&gt;&lt;u&gt;ER: Optimal&lt;/u&gt;&lt;/b&gt;&lt;/h1&gt;" style="text;html=1;align=center;verticalAlign=middle;resizable=0;points=[];autosize=1;strokeColor=none;fillColor=none;" vertex="1" parent="1">
          <mxGeometry x="334" y="40" width="160" height="70" as="geometry" />
        </mxCell>
        <mxCell id="Nx-WTrkzFlIJL_QPD2IQ-29" value="&lt;h1&gt;&lt;b&gt;&lt;u&gt;ER: Verklig&lt;/u&gt;&lt;/b&gt;&lt;/h1&gt;" style="text;html=1;align=center;verticalAlign=middle;resizable=0;points=[];autosize=1;strokeColor=none;fillColor=none;" vertex="1" parent="1">
          <mxGeometry x="326.5" y="470" width="150" height="70" as="geometry" />
        </mxCell>
        <mxCell id="Nx-WTrkzFlIJL_QPD2IQ-32" value="Condemned" style="swimlane;whiteSpace=wrap;html=1;" vertex="1" parent="1">
          <mxGeometry x="207.5" y="540" width="110" height="120" as="geometry" />
        </mxCell>
        <mxCell id="Nx-WTrkzFlIJL_QPD2IQ-33" value="&lt;u&gt;◆ id&amp;nbsp; &amp;nbsp; &amp;nbsp; &amp;nbsp; &amp;nbsp; &amp;nbsp; &amp;nbsp; &amp;nbsp; &amp;nbsp; &amp;nbsp; &amp;nbsp; &amp;nbsp; &amp;nbsp;&amp;nbsp;&lt;span style=&quot;white-space: pre;&quot;&gt;&#x9;&lt;/span&gt;&lt;span style=&quot;white-space: pre;&quot;&gt;&#x9;&lt;/span&gt;&lt;span style=&quot;white-space: pre;&quot;&gt;&#x9;&lt;/span&gt;&lt;/u&gt;" style="text;html=1;align=left;verticalAlign=middle;whiteSpace=wrap;rounded=0;" vertex="1" parent="Nx-WTrkzFlIJL_QPD2IQ-32">
          <mxGeometry y="30" width="200" height="30" as="geometry" />
        </mxCell>
        <mxCell id="Nx-WTrkzFlIJL_QPD2IQ-34" value="◆ Name" style="text;html=1;align=left;verticalAlign=middle;whiteSpace=wrap;rounded=0;" vertex="1" parent="Nx-WTrkzFlIJL_QPD2IQ-32">
          <mxGeometry y="50" width="110" height="30" as="geometry" />
        </mxCell>
        <mxCell id="Nx-WTrkzFlIJL_QPD2IQ-35" value="◆ Time" style="text;html=1;align=left;verticalAlign=middle;whiteSpace=wrap;rounded=0;" vertex="1" parent="Nx-WTrkzFlIJL_QPD2IQ-32">
          <mxGeometry y="80" width="110" height="30" as="geometry" />
        </mxCell>
        <mxCell id="Nx-WTrkzFlIJL_QPD2IQ-36" value="Saved" style="swimlane;whiteSpace=wrap;html=1;" vertex="1" parent="1">
          <mxGeometry x="507.5" y="540" width="111" height="120" as="geometry" />
        </mxCell>
        <mxCell id="Nx-WTrkzFlIJL_QPD2IQ-37" value="&lt;u&gt;◆ id&amp;nbsp; &amp;nbsp; &amp;nbsp; &amp;nbsp; &amp;nbsp; &amp;nbsp; &amp;nbsp; &amp;nbsp; &amp;nbsp; &amp;nbsp; &amp;nbsp; &amp;nbsp; &amp;nbsp;&amp;nbsp;&lt;span style=&quot;white-space: pre;&quot;&gt;&#x9;&lt;/span&gt;&lt;span style=&quot;white-space: pre;&quot;&gt;&#x9;&lt;/span&gt;&lt;span style=&quot;white-space: pre;&quot;&gt;&#x9;&lt;/span&gt;&lt;/u&gt;" style="text;html=1;align=left;verticalAlign=middle;whiteSpace=wrap;rounded=0;" vertex="1" parent="Nx-WTrkzFlIJL_QPD2IQ-36">
          <mxGeometry y="30" width="200" height="30" as="geometry" />
        </mxCell>
        <mxCell id="Nx-WTrkzFlIJL_QPD2IQ-38" value="◆ Name" style="text;html=1;align=left;verticalAlign=middle;whiteSpace=wrap;rounded=0;" vertex="1" parent="Nx-WTrkzFlIJL_QPD2IQ-36">
          <mxGeometry y="50" width="110" height="30" as="geometry" />
        </mxCell>
        <mxCell id="Nx-WTrkzFlIJL_QPD2IQ-39" value="◆ Time" style="text;html=1;align=left;verticalAlign=middle;whiteSpace=wrap;rounded=0;" vertex="1" parent="Nx-WTrkzFlIJL_QPD2IQ-36">
          <mxGeometry y="80" width="110" height="30" as="geometry" />
        </mxCell>
        <mxCell id="Nx-WTrkzFlIJL_QPD2IQ-40" value="IPLogger" style="swimlane;whiteSpace=wrap;html=1;" vertex="1" parent="1">
          <mxGeometry x="357.5" y="700" width="110" height="140" as="geometry" />
        </mxCell>
        <mxCell id="Nx-WTrkzFlIJL_QPD2IQ-41" value="&lt;u&gt;◆ id&amp;nbsp; &amp;nbsp; &amp;nbsp; &amp;nbsp; &amp;nbsp; &amp;nbsp; &amp;nbsp; &amp;nbsp; &amp;nbsp; &amp;nbsp; &amp;nbsp; &amp;nbsp; &amp;nbsp;&amp;nbsp;&lt;span style=&quot;white-space: pre;&quot;&gt;&#x9;&lt;/span&gt;&lt;span style=&quot;white-space: pre;&quot;&gt;&#x9;&lt;/span&gt;&lt;span style=&quot;white-space: pre;&quot;&gt;&#x9;&lt;/span&gt;&lt;/u&gt;" style="text;html=1;align=left;verticalAlign=middle;whiteSpace=wrap;rounded=0;" vertex="1" parent="Nx-WTrkzFlIJL_QPD2IQ-40">
          <mxGeometry y="30" width="200" height="30" as="geometry" />
        </mxCell>
        <mxCell id="Nx-WTrkzFlIJL_QPD2IQ-42" value="◆ Name" style="text;html=1;align=left;verticalAlign=middle;whiteSpace=wrap;rounded=0;" vertex="1" parent="Nx-WTrkzFlIJL_QPD2IQ-40">
          <mxGeometry y="50" width="110" height="30" as="geometry" />
        </mxCell>
        <mxCell id="Nx-WTrkzFlIJL_QPD2IQ-43" value="◆ Destination" style="text;html=1;align=left;verticalAlign=middle;whiteSpace=wrap;rounded=0;" vertex="1" parent="Nx-WTrkzFlIJL_QPD2IQ-40">
          <mxGeometry y="80" width="110" height="30" as="geometry" />
        </mxCell>
        <mxCell id="Nx-WTrkzFlIJL_QPD2IQ-44" value="◆ IP" style="text;html=1;align=left;verticalAlign=middle;whiteSpace=wrap;rounded=0;" vertex="1" parent="Nx-WTrkzFlIJL_QPD2IQ-40">
          <mxGeometry y="110" width="110" height="30" as="geometry" />
        </mxCell>
        <mxCell id="Nx-WTrkzFlIJL_QPD2IQ-48" value="&lt;b&gt;1&lt;/b&gt;" style="edgeLabel;html=1;align=center;verticalAlign=middle;resizable=0;points=[];" vertex="1" connectable="0" parent="1">
          <mxGeometry x="267.5" y="790" as="geometry">
            <mxPoint x="77" y="-13" as="offset" />
          </mxGeometry>
        </mxCell>
      </root>
    </mxGraphModel>
  </diagram>
</mxfile>
